<svg width="60" height="60" viewBox="0 0 60 60" fill="none" xmlns="http://www.w3.org/2000/svg">
<rect width="60" height="60" rx="30" fill="#0790FE"/>
<path d="M30 12.5C26.0218 12.5 22.2064 13.9809 19.3934 16.617C16.5803 19.253 15 22.8283 15 26.5562C15 33.2383 22.7308 41.2612 29.2269 46.8188L30.0231 47.5L30.7962 46.7972C37.9846 40.3097 45 33.4222 45 26.5562C45 22.8283 43.4196 19.253 40.6066 16.617C37.7936 13.9809 33.9782 12.5 30 12.5V12.5ZM30 44.5266C21.8192 37.3687 17.3077 31.011 17.3077 26.5562C17.3077 23.4018 18.6449 20.3766 21.0252 18.1461C23.4055 15.9156 26.6338 14.6625 30 14.6625C33.3662 14.6625 36.5945 15.9156 38.9748 18.1461C41.3551 20.3766 42.6923 23.4018 42.6923 26.5562C42.6923 32.3409 36.5308 38.5473 30 44.5266Z" fill="white"/>
<path d="M30.0002 21.1492C28.8591 21.1492 27.7437 21.4662 26.795 22.0603C25.8462 22.6543 25.1068 23.4987 24.6701 24.4865C24.2335 25.4744 24.1192 26.5614 24.3418 27.6101C24.5644 28.6588 25.1139 29.6221 25.9207 30.3782C26.7276 31.1343 27.7555 31.6492 28.8747 31.8578C29.9938 32.0664 31.1538 31.9593 32.208 31.5501C33.2622 31.1409 34.1632 30.448 34.7971 29.559C35.4311 28.6699 35.7694 27.6247 35.7694 26.5554C35.7694 25.1216 35.1616 23.7465 34.0797 22.7326C32.9977 21.7188 31.5303 21.1492 30.0002 21.1492ZM30.0002 29.7992C29.3156 29.7992 28.6463 29.6089 28.0771 29.2525C27.5078 28.896 27.0641 28.3894 26.8021 27.7967C26.5402 27.204 26.4716 26.5518 26.6052 25.9226C26.7387 25.2934 27.0684 24.7154 27.5525 24.2617C28.0366 23.8081 28.6534 23.4992 29.3249 23.374C29.9963 23.2488 30.6923 23.3131 31.3249 23.5586C31.9574 23.8041 32.498 24.2198 32.8784 24.7533C33.2587 25.2867 33.4617 25.9139 33.4617 26.5554C33.4617 27.4157 33.097 28.2408 32.4479 28.8491C31.7987 29.4574 30.9182 29.7992 30.0002 29.7992V29.7992Z" fill="white"/>
</svg>
