<svg width="80" height="80" viewBox="0 0 80 80" fill="none" xmlns="http://www.w3.org/2000/svg">
<path d="M25.3199 7.58894C8.08081 22.474 0 38.3194 0 52.4843C0 64.0082 9.69697 72.4111 19.3939 72.4111C28.0135 72.4111 35.0168 66.1689 35.0168 58.4863C35.0168 48.643 26.936 43.6012 15.0842 43.6012C15.0842 31.8372 19.1246 24.8748 31.7845 13.3509L25.3199 7.58894ZM70.303 7.58894C53.064 22.474 44.9832 38.3194 44.9832 52.4843C44.9832 64.0082 54.6801 72.4111 64.3771 72.4111C72.9966 72.4111 80 66.1689 80 58.4863C80 48.643 71.9192 43.6012 60.0673 43.6012C60.0673 31.8372 64.1077 24.8748 76.7677 13.3509L70.303 7.58894Z" fill="#0790FE"/>
</svg>
