<svg width="60" height="90" viewBox="0 0 60 90" fill="none" xmlns="http://www.w3.org/2000/svg">
<path fill-rule="evenodd" clip-rule="evenodd" d="M42.6235 10.6373C42.6235 16.512 37.7745 21.2746 31.793 21.2746C25.8115 21.2746 20.9624 16.512 20.9624 10.6373C20.9624 4.76248 25.8115 0 31.793 0C37.7745 0 42.6235 4.76248 42.6235 10.6373ZM38.2913 10.6373C38.2913 14.1623 35.382 17.0197 31.793 17.0197C28.2039 17.0197 25.2946 14.1623 25.2946 10.6373C25.2946 7.11241 28.2039 4.25491 31.793 4.25491C35.382 4.25491 38.2913 7.11241 38.2913 10.6373Z" fill="#0790FE"/>
<path d="M14.6738 83.6175V68.7253H19.0309V83.6175C19.0309 84.7925 20.0063 85.745 21.2095 85.745H21.3984C22.5251 85.745 23.466 84.9059 23.568 83.8101L24.9723 68.7253H29.3475L27.9072 84.1954C27.8959 84.317 27.8811 84.4379 27.863 84.5572C27.8234 84.8189 27.7676 85.0751 27.6968 85.3248C26.9269 88.0422 24.3795 89.9999 21.3984 89.9999H21.2095C17.5998 89.9999 14.6738 87.1425 14.6738 83.6175Z" fill="#0790FE"/>
<path d="M35.8253 83.8101L34.421 68.7253H30.0459L31.4861 84.1954C31.4974 84.317 31.5123 84.4379 31.5303 84.5572C31.57 84.8189 31.6258 85.0751 31.6966 85.3248C32.4665 88.0422 35.0138 89.9999 37.9949 89.9999H38.184C41.7934 89.9999 44.7195 87.1425 44.7195 83.6175V68.7253H40.3625V83.6175C40.3625 84.7925 39.387 85.745 38.184 85.745H37.9949C36.8682 85.745 35.9273 84.9059 35.8253 83.8101Z" fill="#0790FE"/>
<path fill-rule="evenodd" clip-rule="evenodd" d="M2.12119 27.5942C0.949657 27.5942 0 28.5654 0 29.7634V62.301C0 63.499 0.949657 64.4702 2.12119 64.4702H57.2722C58.4437 64.4702 59.3934 63.499 59.3934 62.301V29.7634C59.3934 28.5654 58.4437 27.5942 57.2722 27.5942H2.12119ZM4.24238 31.9326V60.1318H20.1513C20.1513 58.9223 20.7009 57.8698 21.2705 57.0963C21.8665 56.2872 22.6535 55.5512 23.5015 54.9293C24.6593 54.0805 26.0877 53.3315 27.5755 52.9037V48.2014H25.8785C24.6001 48.2014 22.8102 48.9914 21.0916 50.0565C20.2866 50.5554 19.5864 51.0575 19.0873 51.4358C18.8387 51.6239 18.6427 51.7794 18.5116 51.8855C18.4461 51.9384 18.3971 51.979 18.3657 52.005L18.3326 52.0328L18.3269 52.0373C18.3269 52.0373 18.3275 52.0369 16.9695 50.3705C15.6115 48.7042 15.6122 48.7035 15.6122 48.7035L15.6149 48.7014L15.62 48.697L15.6359 48.6836L15.6896 48.6387C15.7348 48.6012 15.7986 48.5484 15.8799 48.4827C16.0419 48.3517 16.2736 48.1682 16.562 47.9495C17.1367 47.5144 17.9478 46.932 18.8928 46.3463C20.6742 45.2422 23.3388 43.863 25.8785 43.863H27.5755V39.5247H26.5149C25.3077 39.5247 23.738 39.9568 22.3344 40.4787C21.6616 40.729 21.0783 40.98 20.6649 41.1681C20.4587 41.2615 20.2966 41.3388 20.1886 41.3913C20.1348 41.4173 20.0945 41.4372 20.0692 41.4498L20.0425 41.4633L20.0389 41.465C20.0389 41.465 20.0393 41.4648 19.0907 39.5247C18.1421 37.5846 18.1428 37.5841 18.1428 37.5841L18.1498 37.5807L18.1635 37.5737L18.2092 37.5507C18.2475 37.5317 18.3014 37.505 18.3697 37.4718C18.5063 37.4056 18.7004 37.3132 18.9418 37.2035C19.4231 36.9848 20.0993 36.6935 20.8848 36.4015C22.3979 35.8388 24.5403 35.1863 26.5149 35.1863H27.5755V31.9326H4.24238ZM31.8179 48.2014H34.1512C35.7397 48.2014 37.3724 48.9959 38.7395 49.9771C39.3979 50.4495 39.9389 50.925 40.3128 51.281C40.4988 51.4577 40.6408 51.6024 40.7324 51.6985C40.778 51.7465 40.8111 51.782 40.8304 51.8033L40.8486 51.8232C40.8486 51.8232 40.8471 51.8217 42.4238 50.3705C44.0005 48.9194 43.9997 48.9185 43.9997 48.9185L43.9965 48.915L43.9912 48.909L43.9761 48.892L43.9292 48.8404C43.8906 48.7981 43.8372 48.7404 43.7699 48.6699C43.6352 48.5287 43.4439 48.3343 43.2023 48.1044C42.7214 47.6469 42.0293 47.0378 41.1763 46.4257C39.5208 45.2376 37.0171 43.863 34.1512 43.863H31.8179V39.5247H33.4088C34.8815 39.5247 36.3133 39.9609 37.4246 40.4392C37.97 40.6741 38.4131 40.9082 38.7136 41.0798C38.8634 41.1654 38.9763 41.2344 39.0469 41.2789C39.0823 41.301 39.1069 41.3171 39.1205 41.326L39.1269 41.3301C39.1269 41.3301 39.126 41.3297 40.3026 39.5247C41.4793 37.7197 41.4782 37.7191 41.4782 37.7191L41.475 37.7169L41.4695 37.7132L41.4549 37.7035L41.4116 37.6748C41.3766 37.6518 41.3293 37.6212 41.2703 37.5841C41.1526 37.51 40.9878 37.4095 40.7812 37.2917C40.3694 37.0566 39.7849 36.7484 39.0709 36.441C37.6632 35.8347 35.6481 35.1863 33.4088 35.1863H31.8179V31.9326H55.151V60.1318H39.242C39.242 58.9125 38.6744 57.8438 38.1053 57.0679C37.5033 56.2473 36.7081 55.4911 35.8496 54.8527C34.7186 54.0115 33.3004 53.2462 31.8179 52.8415V48.2014ZM34.9846 60.1318C34.9566 60.0602 34.8845 59.9071 34.7114 59.6709C34.4182 59.2713 33.9541 58.8073 33.3542 58.3611C32.1314 57.4518 30.7439 56.9034 29.7646 56.8789C28.61 56.9787 27.1623 57.5835 25.9738 58.4551C25.3815 58.8893 24.9359 59.3308 24.6593 59.7062C24.4989 59.9242 24.4327 60.0654 24.4071 60.1318H34.9846Z" fill="#0790FE"/>
</svg>
