<svg width="84" height="90" viewBox="0 0 84 90" fill="none" xmlns="http://www.w3.org/2000/svg">
<path fill-rule="evenodd" clip-rule="evenodd" d="M60.7462 7.75598C60.8153 7.83838 60.8808 7.92816 60.9379 8.01939L60.9407 8.02384L60.947 8.03394L60.9682 8.06819L61.0436 8.1917C61.1084 8.29802 61.2009 8.45182 61.3173 8.64951C61.5502 9.04477 61.8791 9.61609 62.2718 10.3346C63.0562 11.7702 64.101 13.802 65.1467 16.1985C67.2134 20.934 69.3901 27.3289 69.3901 33.4214C69.3901 40.3143 64.7285 44.1358 60.6308 46.1101C58.5669 47.1045 56.5291 47.6995 55.0238 48.0468C54.7333 48.1138 54.4608 48.172 54.2099 48.2224C50.9087 51.2791 46.4897 53.1476 41.634 53.1476C35.7754 53.1476 30.5529 50.4278 27.1625 46.1829L27.0542 46.1737C26.6839 46.1406 26.1683 46.0817 25.5549 45.9757C24.3392 45.7658 22.6819 45.3619 20.9953 44.5758C19.3075 43.7887 17.5142 42.5825 16.1403 40.732C14.7448 38.8529 13.8779 36.4363 13.8779 33.4214C13.8779 27.7208 16.6582 21.242 19.2106 16.4315C20.5146 13.9735 21.8159 11.848 22.7913 10.3369C23.2796 9.5802 23.6879 8.9748 23.9761 8.55567C24.1204 8.34604 24.2347 8.1828 24.314 8.07034L24.3887 7.96513L24.4162 7.92173C24.466 7.84404 24.5335 7.74188 24.6198 7.61879C24.7926 7.37274 25.041 7.04214 25.3724 6.65584C26.0351 5.88374 27.0336 4.88433 28.4254 3.89449C31.2329 1.89766 35.5585 0 41.7605 0C47.9481 0 52.6594 1.88716 55.8338 3.79755C57.4171 4.75035 58.6178 5.7084 59.434 6.44119C59.8427 6.80798 60.1564 7.11968 60.3749 7.34806C60.4844 7.4623 60.5702 7.55589 60.6321 7.62528C60.6631 7.65997 60.6884 7.68864 60.7076 7.71087L60.7321 7.7393L60.7409 7.74979L60.7446 7.75406L60.7462 7.75598ZM28.3049 10.4256C28.2699 10.4841 28.2325 10.5411 28.1924 10.5963L28.1885 10.6019L28.1705 10.6269L28.0937 10.7352C28.0247 10.8327 27.9214 10.9801 27.7888 11.173C27.5233 11.559 27.1403 12.1265 26.6793 12.841C25.7557 14.2723 24.5254 16.282 23.2979 18.5957C20.7869 23.3284 18.5039 28.939 18.5039 33.4214C18.5039 35.4979 19.0827 36.9375 19.8557 37.9788C20.6502 39.0486 21.7482 39.8267 22.9516 40.3877C23.5232 40.6542 24.1014 40.8635 24.6528 41.0276C24.2888 39.3636 23.8942 37.2437 23.6606 35.0205C23.3994 32.5378 23.3229 29.7857 23.7901 27.3538C24.2485 24.9672 25.3331 22.4048 27.8184 21.0717C31.1235 19.2994 36.7163 16.9294 41.6477 15.2943C44.1071 14.4789 46.5045 13.8115 48.4222 13.5076C49.365 13.3584 50.3298 13.2733 51.1812 13.3607C51.8494 13.4293 53.2284 13.6816 53.9931 14.9304C60.1931 23.8719 60.2836 32.0636 58.7133 38.0481C58.2597 39.7765 57.6715 41.309 57.0655 42.6139C57.5778 42.4194 58.1008 42.1982 58.6212 41.9475C61.9746 40.3316 64.7641 37.756 64.7641 33.4214C64.7641 28.2864 62.8903 22.592 60.9062 18.0453C59.9267 15.8006 58.946 13.8933 58.2116 12.5496C57.8447 11.8785 57.5408 11.3504 57.3306 10.9935C57.239 10.838 57.1652 10.7152 57.112 10.6274L57.0574 10.5693L57.0317 10.5424C56.8876 10.3917 56.6572 10.1618 56.342 9.87866C55.7103 9.31164 54.7435 8.53661 53.4468 7.75633C50.8618 6.20055 46.9657 4.62155 41.7605 4.62155C36.5704 4.62155 33.1742 6.19006 31.1085 7.65939C30.0634 8.40263 29.3374 9.1363 28.8845 9.66401C28.6583 9.92762 28.5012 10.1386 28.4078 10.2717C28.3613 10.3381 28.3305 10.3849 28.3153 10.4088L28.3049 10.4256ZM60.9379 8.01939C60.9375 8.0189 60.9372 8.01848 58.9758 9.2431L60.9379 8.01939ZM58.9758 9.2431L60.7462 7.75598C60.7469 7.75686 60.7476 7.75774 58.9758 9.2431ZM29.4739 41.3486C29.4186 41.1207 29.3607 40.8762 29.3013 40.6167C28.9277 38.9872 28.4994 36.8026 28.2611 34.5378C28.0201 32.2455 27.9903 30.0105 28.3333 28.2247C28.6849 26.3937 29.3274 25.508 30.0065 25.1438C33.0306 23.5218 38.3699 21.2506 43.1049 19.6806C45.4785 18.8936 47.5979 18.3175 49.1467 18.0721C49.7326 17.9795 50.1621 17.9464 50.4533 17.9469C55.5366 25.4996 55.4841 32.129 54.2385 36.8761C53.5937 39.3333 52.6166 41.3222 51.8027 42.6925C51.397 43.3756 51.0355 43.8985 50.7829 44.2419C50.6568 44.4133 50.5583 44.5395 50.4956 44.6178C50.4896 44.6252 50.4841 44.6319 50.479 44.6386C50.4561 44.6666 50.4394 44.6867 50.4295 44.6987L50.4214 44.7087L50.4188 44.7117C50.1464 45.0292 49.9717 45.4058 49.8996 45.7998C47.5907 47.5128 44.7309 48.5261 41.634 48.5261C36.3965 48.5261 31.8366 45.6277 29.4739 41.3486ZM50.8393 17.9799C50.8375 17.9811 50.816 17.9778 50.7799 17.967C50.8231 17.9734 50.8412 17.979 50.8393 17.9799Z" fill="#0790FE"/>
<path fill-rule="evenodd" clip-rule="evenodd" d="M27.5574 59.6249C27.068 58.6497 26.4638 57.4458 25.4431 57.678C12.9431 60.5221 0 68.7282 0 77.452V89.9998H83.2683V77.452C83.2683 70.5805 75.2378 64.0301 65.7188 60.1684L65.6878 60.1044L65.6765 60.0817L65.5995 60.1201C63.0702 59.1013 60.438 58.2726 57.8252 57.678C56.6622 57.4135 55.4602 59.0127 54.9323 60.0145H45.5318C43.4806 60.0149 42.434 60.0147 41.4079 60.0145H41.3494C40.3012 60.0142 39.2529 60.014 37.1559 60.0145H27.7561C27.6916 59.892 27.6256 59.7607 27.5574 59.6249ZM58.7571 62.6772C59.7677 62.9556 60.7741 63.2699 61.7673 63.6167C61.7946 64.407 61.7349 65.3401 61.6051 66.291C61.474 67.2518 61.279 68.1736 61.062 68.9167C61.0327 69.0173 61.0035 69.1125 60.9746 69.2028H57.8252C56.949 69.2028 56.1483 69.6973 55.7565 70.4802L53.4434 75.1017C53.2827 75.4225 53.1992 75.7765 53.1992 76.1351V80.7567C53.1992 82.0329 54.2347 83.0675 55.5122 83.0675H60.1382V78.4459H57.8252V76.6807L59.2546 73.8244H65.6478L67.0772 76.6807V78.4459H64.7642V83.0675H69.3903C70.6677 83.0675 71.7033 82.0329 71.7033 80.7567V76.1351C71.7033 75.7765 71.6198 75.4225 71.459 75.1017L69.146 70.4802C68.7542 69.6973 67.9534 69.2028 67.0772 69.2028H65.7672C65.9383 68.4751 66.0819 67.6973 66.1886 66.9154C66.2526 66.4463 66.3047 65.9663 66.3412 65.4859C68.5962 66.551 70.6934 67.7713 72.5075 69.0935C76.9545 72.3348 78.6423 75.3654 78.6423 77.452V85.3782H4.62602V77.452C4.62602 75.3654 6.31386 72.3348 10.7608 69.0935C12.9956 67.4646 15.6602 65.9904 18.5205 64.7705C18.5503 65.4862 18.6193 66.2131 18.7152 66.9154C18.8732 68.0726 19.1119 69.2211 19.4008 70.2108L19.42 70.2759C17.4794 71.5048 16.1911 73.6698 16.1911 76.1351C16.1911 79.9639 19.2977 83.0675 23.1301 83.0675C26.9625 83.0675 30.0691 79.9639 30.0691 76.1351C30.0691 72.5819 27.3932 69.6529 23.9445 69.2499C23.9107 69.146 23.8763 69.0348 23.8418 68.9167C23.6248 68.1736 23.4299 67.2518 23.2987 66.291C23.1673 65.3272 23.1076 64.3818 23.1377 63.5846C23.1449 63.3919 23.1569 63.22 23.1722 63.0677C23.4497 62.9824 23.7278 62.8995 24.0062 62.8193L24.9636 64.636H37.1571C39.3008 64.6356 40.3331 64.6358 41.3788 64.636C42.4005 64.6363 43.4348 64.6365 45.5318 64.636H57.7248L58.7571 62.6772ZM23.1301 78.4799C24.3754 78.4799 25.4431 77.462 25.4431 76.1351C25.4431 74.8083 24.3754 73.7904 23.1301 73.7904C21.8848 73.7904 20.8171 74.8083 20.8171 76.1351C20.8171 77.462 21.8848 78.4799 23.1301 78.4799Z" fill="#0790FE"/>
</svg>
