<svg width="79" height="90" viewBox="0 0 79 90" fill="none" xmlns="http://www.w3.org/2000/svg">
<path d="M14.8271 33.8958L16.4572 35.7682L14.8271 33.8958ZM68.3775 31.7077L66.7476 33.5802L68.3775 31.7077ZM25.6086 18.8045L26.9993 20.8667C27.563 20.474 27.9406 19.861 28.0417 19.1742C28.1429 18.4875 27.9581 17.7888 27.532 17.246L25.6086 18.8045ZM19.6819 11.2517L18.3558 9.14595C17.7688 9.52762 17.3688 10.1445 17.2549 10.843C17.1407 11.5417 17.3237 12.2568 17.7582 12.8105L19.6819 11.2517ZM27.9793 5.85695L29.9027 4.29835C29.1171 3.29732 27.7145 3.0611 26.6532 3.75113L27.9793 5.85695ZM33.9057 13.4097L31.9823 14.9683C32.6918 15.8727 33.9192 16.1642 34.9498 15.6735L33.9057 13.4097ZM40.7021 10.1728L41.7462 12.4365C42.6102 12.025 43.1623 11.1425 43.1623 10.1728H40.7021ZM40.7021 2.5001L40.7019 0.000100136C39.3433 0.000125136 38.2419 1.1194 38.2419 2.5001H40.7021ZM51.2909 2.5H53.7512C53.7512 1.83695 53.4919 1.20108 53.0306 0.732225C52.569 0.263375 51.9434 0 51.2909 0V2.5ZM51.2909 10.1728H48.8307C48.8307 11.0865 49.3213 11.9272 50.11 12.366L51.2909 10.1728ZM12.3012 35.0735L10.1797 36.3392C10.5222 36.9323 11.09 37.3555 11.7493 37.5098C12.4087 37.664 13.1012 37.5355 13.6646 37.1545L12.3012 35.0735ZM2.46025 28.4065L0.0429945 27.9412C-0.080706 28.605 0.0650873 29.2913 0.447211 29.8438C0.829358 30.3965 1.41529 30.7685 2.07163 30.8752L2.46025 28.4065ZM4.66343 16.5878L5.35791 14.1895C4.69146 13.9903 3.97307 14.0865 3.38025 14.4548C2.78746 14.823 2.37552 15.4288 2.24621 16.1225L4.66343 16.5878ZM22.1421 30.0808L23.0546 32.4022C24.0985 31.9787 24.7268 30.8902 24.5817 29.7577L22.1421 30.0808ZM58.0229 28.0933L59.0564 30.362L58.0229 28.0933ZM37.2866 33.5115L35.0807 32.4043L33.7827 35.0745L36.5957 35.9108L37.2866 33.5115ZM52.2863 17.962L51.2528 15.6932L52.2863 17.962ZM75.4556 14.4893L77.9141 14.5813L78.0049 12.0773L75.5405 11.9907L75.4556 14.4893ZM75.0253 26.3685L74.9404 28.867L77.3935 28.953L77.4838 26.4605L75.0253 26.3685ZM49.7031 35.8348L47.6208 34.5035L49.7031 35.8348ZM46.4066 36.9445L45.4432 39.2448L46.4066 36.9445ZM43.6273 60.727L45.8851 59.7342L43.6273 60.727ZM42.9549 50.7452L45.3249 51.416L42.9549 50.7452ZM13.1969 32.0232C8.26467 36.4567 6.41654 42.513 6.62542 48.8167C6.83232 55.0707 9.0517 61.686 12.3811 67.6715C15.7175 73.6693 20.2539 79.19 25.2794 83.2375C30.2702 87.257 35.9706 90 41.6023 90V85C37.4974 85 32.853 82.957 28.3357 79.319C23.8529 75.7085 19.7178 70.6998 16.6646 65.211C13.6046 59.7098 11.7164 53.881 11.5429 48.6485C11.3715 43.4655 12.8702 38.9925 16.4572 35.7682L13.1969 32.0232ZM41.6023 90C47.2197 90 53.0662 87.2712 58.2433 83.2315C63.4597 79.1612 68.2365 73.5783 71.7379 67.4333C78.6182 55.3588 81.1296 39.832 70.0076 29.8352L66.7476 33.5802C75.1367 41.1208 73.9969 53.4905 67.4798 64.9277C64.2827 70.5387 59.9246 75.6155 55.2465 79.266C50.529 82.947 45.7215 85 41.6023 85V90ZM70.0076 29.8352C68.5955 28.566 67.495 27.9063 66.2927 27.2888C65.1329 26.693 64.0591 26.2175 62.3248 25.1785L59.8255 29.4852C61.7427 30.6342 63.103 31.2527 64.0728 31.751C65.0003 32.2272 65.7254 32.6615 66.7476 33.5802L70.0076 29.8352ZM38.8992 31.3737C35.234 30.1545 30.4803 28.9638 25.9021 28.6973C21.439 28.4373 16.5397 29.0185 13.1969 32.0232L16.4572 35.7682C18.2904 34.1205 21.4975 33.4487 25.6204 33.689C29.6279 33.9225 33.9399 34.985 37.368 36.1255L38.8992 31.3737ZM27.532 17.246L21.6055 9.69315L17.7582 12.8105L23.6849 20.3633L27.532 17.246ZM21.0079 13.3575L29.3051 7.96278L26.6532 3.75113L18.3558 9.14595L21.0079 13.3575ZM26.0556 7.41558L31.9823 14.9683L35.8294 11.851L29.9027 4.29835L26.0556 7.41558ZM34.9498 15.6735L41.7462 12.4365L39.658 7.90912L32.8616 11.146L34.9498 15.6735ZM43.1623 10.1728V2.5001H38.2419V10.1728H43.1623ZM40.7021 5.0001L51.2909 5V0L40.7019 0.000100136L40.7021 5.0001ZM48.8307 2.5V10.1728H53.7512V2.5H48.8307ZM51.2909 10.1728C50.11 12.366 50.1095 12.3658 50.109 12.3653C50.1088 12.3653 50.1083 12.365 50.1081 12.3647C50.1076 12.3645 50.1068 12.3642 50.1063 12.364C50.1054 12.3632 50.1044 12.3627 50.1039 12.3625C50.1024 12.3615 50.1017 12.3612 50.1017 12.3612C50.1014 12.361 50.1041 12.3625 50.109 12.3655C50.1194 12.3715 50.14 12.3835 50.1698 12.4015C50.2298 12.4375 50.3273 12.4973 50.4557 12.581C50.713 12.749 51.0917 13.0105 51.5397 13.3643C52.4426 14.077 53.5927 15.1363 54.6118 16.5278L58.559 13.5425C57.2073 11.697 55.7103 10.325 54.5584 9.4158C53.9795 8.9587 53.4788 8.61147 53.1137 8.37342C52.9312 8.25422 52.7816 8.1619 52.6724 8.09635C52.6177 8.06357 52.5732 8.03745 52.5395 8.018C52.5225 8.00825 52.5085 8.00017 52.4972 7.99377C52.4915 7.99055 52.4866 7.98775 52.4822 7.98537C52.4802 7.9842 52.4782 7.9831 52.4765 7.98213C52.4755 7.98163 52.4748 7.98118 52.4741 7.98073C52.4736 7.9805 52.4731 7.9802 52.4728 7.98007C52.4723 7.97977 52.4716 7.97948 51.2909 10.1728ZM23.2807 26.647C23.8281 24.6648 24.7937 23.19 25.6238 22.2105C26.0381 21.722 26.4121 21.3645 26.6699 21.1383C26.7986 21.0253 26.897 20.9463 26.9555 20.9007C26.9848 20.878 27.004 20.8637 27.0116 20.858C27.0156 20.8552 27.0166 20.8545 27.0146 20.856C27.0136 20.8567 27.0119 20.858 27.0092 20.8597C27.008 20.8605 27.0065 20.8618 27.005 20.8628C27.004 20.8633 27.0033 20.864 27.0023 20.8647C27.0018 20.865 27.0011 20.8655 27.0008 20.8655C27.0001 20.8662 26.9993 20.8668 25.6086 18.8045C24.2176 16.7423 24.2168 16.743 24.2161 16.7435C24.2158 16.7437 24.2151 16.7442 24.2144 16.7445C24.2134 16.7455 24.2121 16.7463 24.2109 16.747C24.2085 16.7488 24.2057 16.7508 24.2028 16.7528C24.1971 16.7568 24.1905 16.7615 24.1831 16.7668C24.1684 16.7775 24.1501 16.7905 24.129 16.806C24.0869 16.837 24.0325 16.8778 23.9671 16.9285C23.8365 17.03 23.6615 17.1717 23.4541 17.3537C23.0396 17.7175 22.4892 18.2473 21.8958 18.9475C20.7107 20.3455 19.3281 22.4545 18.5433 25.2962L23.2807 26.647ZM12.3012 35.0735C14.4226 33.8078 14.4221 33.807 14.4216 33.806C14.4216 33.8057 14.4209 33.8047 14.4207 33.8042C14.4199 33.8027 14.4189 33.8015 14.4182 33.8C14.4165 33.797 14.4145 33.7938 14.4123 33.79C14.4081 33.7828 14.403 33.774 14.397 33.764C14.3852 33.744 14.37 33.7188 14.3513 33.6882C14.3141 33.6278 14.2635 33.5467 14.1992 33.4485C14.0708 33.252 13.8878 32.9845 13.6491 32.6667C13.1733 32.0327 12.4685 31.1877 11.5279 30.3057C9.65249 28.547 6.76614 26.5748 2.84886 25.938L2.07163 30.8752C4.76388 31.3127 6.79788 32.674 8.19062 33.9803C8.8844 34.6305 9.40031 35.2507 9.73687 35.6992C9.90466 35.9225 10.0255 36.1003 10.0998 36.2138C10.1367 36.2705 10.162 36.311 10.1753 36.3327C10.1819 36.3435 10.1856 36.3498 10.1864 36.351C10.1869 36.3515 10.1864 36.351 10.1851 36.349C10.1846 36.348 10.1839 36.3467 10.1829 36.3452C10.1824 36.3445 10.1819 36.3435 10.1814 36.3425C10.1812 36.342 10.1807 36.3413 10.1805 36.341C10.18 36.3402 10.1797 36.3392 12.3012 35.0735ZM4.8775 28.8717L7.08081 17.053L2.24621 16.1225L0.0429945 27.9412L4.8775 28.8717ZM4.66343 16.5878C3.96889 18.986 3.96842 18.986 3.96802 18.9858C3.96797 18.9858 3.96763 18.9858 3.96753 18.9858C3.96731 18.9858 3.96736 18.9858 3.96763 18.9858C3.9682 18.986 3.96972 18.9862 3.97221 18.9873C3.9772 18.9888 3.98603 18.9912 3.99858 18.9952C4.02367 19.003 4.0636 19.0152 4.11743 19.0322C4.22514 19.0662 4.38826 19.1188 4.59917 19.1895C5.02135 19.3308 5.63296 19.5442 6.37349 19.8272C7.86046 20.3955 9.83676 21.233 11.8298 22.3158C13.8378 23.4065 15.7696 24.6963 17.2325 26.1398C18.7059 27.5938 19.5256 29.0245 19.7025 30.4035L24.5817 29.7577C24.2077 26.839 22.5672 24.4342 20.6603 22.5527C18.7426 20.6602 16.3734 19.1143 14.1495 17.9062C11.9105 16.69 9.72383 15.766 8.10574 15.1475C7.29362 14.837 6.6173 14.6008 6.13952 14.4408C5.90039 14.3605 5.71046 14.2995 5.57785 14.2575C5.51143 14.2365 5.45927 14.2205 5.42237 14.209C5.40391 14.2035 5.38915 14.199 5.37833 14.1957C5.37291 14.194 5.36873 14.1927 5.36529 14.1917C5.36357 14.1912 5.36209 14.1907 5.36086 14.1902C5.36037 14.1902 5.35963 14.19 5.35914 14.19C5.35864 14.1897 5.35791 14.1895 4.66343 16.5878ZM21.2296 27.759C18.0505 29.0492 15.5019 30.3417 13.7384 31.3177C12.8562 31.8062 12.1688 32.216 11.696 32.5082C11.4595 32.6543 11.2765 32.771 11.1493 32.8532C11.0858 32.8945 11.0361 32.927 11.0009 32.9505C10.9832 32.9622 10.969 32.9715 10.9586 32.9785C10.9532 32.9823 10.949 32.985 10.9456 32.9875C10.9436 32.9885 10.9421 32.9895 10.9409 32.9905C10.9404 32.9907 10.9397 32.9912 10.9392 32.9915C10.9389 32.9917 10.9387 32.992 10.9385 32.992C10.9382 32.9923 10.9377 32.9925 12.3012 35.0735C13.6646 37.1545 13.6641 37.1547 13.6639 37.155C13.6639 37.155 13.6637 37.1553 13.6634 37.1553C13.6632 37.1555 13.6629 37.1558 13.6627 37.1558C13.6624 37.156 13.6622 37.1562 13.6622 37.1562C13.6624 37.156 13.6634 37.1553 13.6654 37.154C13.6691 37.1515 13.6764 37.1465 13.6873 37.1395C13.7092 37.125 13.7448 37.1015 13.794 37.0695C13.8929 37.0058 14.0462 36.9077 14.2516 36.7807C14.663 36.5267 15.2827 36.1565 16.0919 35.7088C17.7112 34.8125 20.0831 33.6085 23.0546 32.4022L21.2296 27.759ZM51.7857 37.166C54.0341 33.5342 56.4129 31.6055 59.0564 30.362L56.9896 25.8245C53.4446 27.492 50.3526 30.091 47.6208 34.5035L51.7857 37.166ZM36.5957 35.9108C39.6481 36.8182 43.2078 38.278 45.4432 39.2448L47.3701 34.6442C45.0971 33.661 41.3191 32.1055 37.9774 31.112L36.5957 35.9108ZM51.2528 15.6932C44.0534 19.0795 39.1674 23.9968 35.0807 32.4043L39.4924 34.6185C43.1382 27.1185 47.2503 23.0855 53.3199 20.2308L51.2528 15.6932ZM75.5405 11.9907C66.308 11.667 58.1919 12.4295 51.2528 15.6932L53.3199 20.2308C59.2166 17.4573 66.413 16.6737 75.3707 16.9878L75.5405 11.9907ZM77.4838 26.4605L77.9141 14.5813L72.9971 14.3972L72.5668 26.2765L77.4838 26.4605ZM59.0564 30.362C62.2486 28.8608 66.4706 28.57 74.9404 28.867L75.1102 23.87C66.7953 23.5785 61.403 23.7487 56.9896 25.8245L59.0564 30.362ZM47.6208 34.5035C47.5789 34.5712 47.5164 34.6175 47.4559 34.6383C47.4006 34.6573 47.3765 34.647 47.3701 34.6442L45.4432 39.2448C47.8412 40.282 50.4958 39.249 51.7857 37.166L47.6208 34.5035ZM41.3693 61.7197L42.3842 64.1032L46.9002 62.1177L45.8851 59.7342L41.3693 61.7197ZM42.1876 63.2808L42.8764 73.5387L47.7854 73.1985L47.0967 62.9403L42.1876 63.2808ZM44.9258 65.594L55.3966 64.3587L54.8292 59.392L44.3585 60.6273L44.9258 65.594ZM46.9715 35.201L41.2429 47.7952L45.7092 49.893L51.4378 37.299L46.9715 35.201ZM41.1061 48.1733L40.585 50.0742L45.3249 51.416L45.846 49.515L41.1061 48.1733ZM42.4624 46.5662L31.7545 51.487L33.782 56.0428L44.4899 51.122L42.4624 46.5662ZM33.3322 51.3315L22.6629 48.7773L21.5347 53.644L32.204 56.1982L33.3322 51.3315ZM30.4803 52.8452L26.8419 62.191L31.4174 64.0303L35.0559 54.6845L30.4803 52.8452ZM45.8851 59.7342C44.7671 57.1082 44.5693 54.1723 45.3249 51.416L40.585 50.0742C39.5271 53.933 39.8039 58.0435 41.3693 61.7197L45.8851 59.7342Z" fill="#0790FE"/>
</svg>
