<svg width="60" height="60" viewBox="0 0 60 60" fill="none" xmlns="http://www.w3.org/2000/svg">
<rect width="60" height="60" rx="30" fill="#0790FE"/>
<path d="M43.125 15H16.875C15.7147 15 14.6019 15.5497 13.7814 16.5281C12.9609 17.5066 12.5 18.8337 12.5 20.2174V39.7826C12.5 41.1663 12.9609 42.4934 13.7814 43.4719C14.6019 44.4503 15.7147 45 16.875 45H43.125C44.2853 45 45.3981 44.4503 46.2186 43.4719C47.0391 42.4934 47.5 41.1663 47.5 39.7826V20.2174C47.5 18.8337 47.0391 17.5066 46.2186 16.5281C45.3981 15.5497 44.2853 15 43.125 15ZM45.3125 39.7826C45.3125 40.4745 45.082 41.138 44.6718 41.6272C44.2616 42.1165 43.7052 42.3913 43.125 42.3913H16.875C16.2948 42.3913 15.7384 42.1165 15.3282 41.6272C14.918 41.138 14.6875 40.4745 14.6875 39.7826V20.2174C14.6875 19.5255 14.918 18.862 15.3282 18.3728C15.7384 17.8835 16.2948 17.6087 16.875 17.6087H43.125C43.7052 17.6087 44.2616 17.8835 44.6718 18.3728C45.082 18.862 45.3125 19.5255 45.3125 20.2174V39.7826Z" fill="white"/>
<path d="M42.8733 22.0035C42.7823 21.8705 42.6701 21.7602 42.5433 21.679C42.4164 21.5978 42.2773 21.5472 42.134 21.5303C41.9907 21.5133 41.8461 21.5302 41.7083 21.5801C41.5705 21.63 41.4423 21.7118 41.3311 21.8209L29.9999 32.8818L18.6577 21.8209C18.5486 21.6992 18.4198 21.6055 18.2791 21.5455C18.1385 21.4855 17.989 21.4605 17.84 21.472C17.6909 21.4835 17.5454 21.5313 17.4125 21.6124C17.2795 21.6935 17.1619 21.8063 17.0668 21.9437C16.9718 22.0811 16.9014 22.2403 16.8599 22.4115C16.8184 22.5826 16.8068 22.762 16.8257 22.9387C16.8446 23.1154 16.8937 23.2856 16.9698 23.4388C17.046 23.5921 17.1477 23.725 17.2686 23.8296L29.2999 35.5687C29.4967 35.7632 29.7443 35.8693 29.9999 35.8687C30.2517 35.8663 30.4951 35.7603 30.689 35.5687L42.7202 23.8296C42.9423 23.6106 43.0829 23.296 43.1116 22.9541C43.1403 22.6122 43.0547 22.2706 42.8733 22.0035V22.0035Z" fill="white"/>
<path d="M38.4214 32.3344C38.2165 32.0914 37.9392 31.9551 37.6503 31.9551C37.3613 31.9551 37.0841 32.0914 36.8792 32.3344C36.7767 32.4556 36.6953 32.5999 36.6398 32.7588C36.5842 32.9178 36.5557 33.0883 36.5557 33.2605C36.5557 33.4327 36.5842 33.6031 36.6398 33.7621C36.6953 33.921 36.7767 34.0653 36.8792 34.1865L41.2542 39.4039C41.3562 39.5247 41.4771 39.6203 41.6101 39.6853C41.743 39.7504 41.8854 39.7835 42.0292 39.7829C42.1729 39.7823 42.3151 39.748 42.4477 39.6818C42.5802 39.6157 42.7006 39.519 42.8019 39.3974C42.9031 39.2758 42.9833 39.1316 43.0378 38.973C43.0923 38.8144 43.1202 38.6446 43.1197 38.4732C43.1191 38.3018 43.0903 38.1323 43.0349 37.9742C42.9794 37.816 42.8984 37.6725 42.7964 37.5518L38.4214 32.3344Z" fill="white"/>
<path d="M21.6143 32.3344L17.2393 37.5518C17.0333 37.7956 16.917 38.1271 16.916 38.4732C16.915 38.8194 17.0293 39.1518 17.2338 39.3974C17.4383 39.643 17.7163 39.7817 18.0065 39.7829C18.2968 39.7841 18.5755 39.6478 18.7815 39.4039L23.1565 34.1865C23.259 34.0653 23.3404 33.921 23.3959 33.7621C23.4514 33.6031 23.48 33.4327 23.48 33.2605C23.48 33.0883 23.4514 32.9178 23.3959 32.7588C23.3404 32.5999 23.259 32.4556 23.1565 32.3344C22.9516 32.0914 22.6743 31.9551 22.3854 31.9551C22.0964 31.9551 21.8192 32.0914 21.6143 32.3344V32.3344Z" fill="white"/>
</svg>
