<svg width="16" height="21" viewBox="0 0 16 21" fill="none" xmlns="http://www.w3.org/2000/svg">
<path d="M15.0557 3.76574V19.8011C15.0557 19.9118 14.9649 20 14.8597 20H2.02948C1.9243 20 1.8335 19.9118 1.8335 19.8011V1.19891C1.8335 1.08817 1.9243 1 2.02948 1H12.297L15.0557 3.76574Z" fill="white" stroke="black"/>
<mask id="path-2-inside-1_298_547" fill="white">
<path d="M16 3.559V19.8011C16 20.186 15.6904 20.5 15.3109 20.5H14.3271C14.7066 20.5 15.0162 20.186 15.0162 19.8011V3.559L12 0.5H12.9838L16 3.559Z"/>
</mask>
<path d="M16 3.559H17V3.14891L16.7121 2.85689L16 3.559ZM15.0162 3.559H16.0162V3.14891L15.7283 2.85689L15.0162 3.559ZM12 0.5V-0.5H9.60962L11.2879 1.20211L12 0.5ZM12.9838 0.5L13.6958 -0.202111L13.4021 -0.5H12.9838V0.5ZM15 3.559V19.8011H17V3.559H15ZM15 19.8011C15 19.647 15.1249 19.5 15.3109 19.5V21.5C16.2559 21.5 17 20.725 17 19.8011H15ZM15.3109 19.5H14.3271V21.5H15.3109V19.5ZM14.3271 21.5C15.2721 21.5 16.0162 20.725 16.0162 19.8011H14.0162C14.0162 19.647 14.1411 19.5 14.3271 19.5V21.5ZM16.0162 19.8011V3.559H14.0162V19.8011H16.0162ZM15.7283 2.85689L12.7121 -0.202111L11.2879 1.20211L14.3042 4.26111L15.7283 2.85689ZM12 1.5H12.9838V-0.5H12V1.5ZM12.2717 1.20211L15.2879 4.26111L16.7121 2.85689L13.6958 -0.202111L12.2717 1.20211Z" fill="black" mask="url(#path-2-inside-1_298_547)"/>
<path d="M12.5823 10.501H4.2338C3.95347 10.501 3.72412 10.2683 3.72412 9.98391C3.72412 9.6995 3.95347 9.4668 4.2338 9.4668H12.5823C12.8626 9.4668 13.0919 9.6995 13.0919 9.98391C13.0919 10.2735 12.8677 10.501 12.5823 10.501Z" fill="#7A7371"/>
<path d="M12.5823 13.1539H4.2338C3.95347 13.1539 3.72412 12.9212 3.72412 12.6367C3.72412 12.3523 3.95347 12.1196 4.2338 12.1196H12.5823C12.8626 12.1196 13.0919 12.3523 13.0919 12.6367C13.0919 12.9263 12.8677 13.1539 12.5823 13.1539Z" fill="#7A7371"/>
<path d="M12.5823 15.8067H4.2338C3.95347 15.8067 3.72412 15.574 3.72412 15.2896C3.72412 15.0052 3.95347 14.7725 4.2338 14.7725H12.5823C12.8626 14.7725 13.0919 15.0052 13.0919 15.2896C13.0919 15.5792 12.8677 15.8067 12.5823 15.8067Z" fill="#7A7371"/>
<path d="M7.15763 7.61122H0V4.48478C0 4.25072 0.175708 4.05566 0.39793 4.05566H7.15763C7.37468 4.05566 7.55556 4.24514 7.55556 4.48478V7.1821C7.55556 7.41617 7.37985 7.61122 7.15763 7.61122Z" fill="#0790FE"/>
<path d="M7.55556 7.12637V7.1821C7.55556 7.41617 7.37985 7.61122 7.15763 7.61122H0V4.48478C0 4.25072 0.175708 4.05566 0.39793 4.05566H0.599482V5.17026C0.599482 6.25142 1.41085 7.13194 2.41861 7.13194H7.55556V7.12637Z" fill="#0790FE"/>
<path d="M0 7.81201L1.18244 9.1772V7.81201H0Z" fill="#0790FE"/>
<path d="M1.91092 6.78803V7.1345H0.845703V6.78803H1.10564V5.42801H0.845703V5.08154H1.91092C2.16067 5.08154 2.34924 5.13843 2.48686 5.25736C2.62447 5.3763 2.69073 5.53661 2.69073 5.73311C2.69073 5.84688 2.66524 5.9503 2.61937 6.04338C2.5735 6.13646 2.51234 6.20886 2.43589 6.2554C2.35944 6.30711 2.27789 6.33814 2.18105 6.35882C2.08421 6.37951 1.96699 6.38468 1.82428 6.38468H1.6306V6.78286H1.91092V6.78803ZM1.6306 6.04338H1.70705C1.88544 6.04338 2.00267 6.01235 2.05363 5.95547C2.1046 5.89859 2.13008 5.82102 2.13008 5.73311C2.13008 5.66071 2.1097 5.59349 2.07402 5.54178C2.03834 5.49007 1.99757 5.45904 1.9517 5.44353C1.90583 5.43318 1.82938 5.42284 1.72234 5.42284H1.62551V6.04338H1.6306Z" fill="white"/>
<path d="M2.81348 7.1345V6.78803H3.11928V5.42801H2.81348V5.08154H3.77167C3.97554 5.08154 4.13354 5.09189 4.26095 5.11774C4.38328 5.1436 4.5005 5.20048 4.61263 5.28322C4.72476 5.37113 4.8165 5.48489 4.88276 5.62969C4.94902 5.77448 4.98469 5.93479 4.98469 6.11061C4.98469 6.2554 4.95921 6.38985 4.91334 6.51913C4.86747 6.64841 4.80631 6.75183 4.73495 6.83457C4.6636 6.91214 4.58205 6.97936 4.48011 7.02591C4.38328 7.07245 4.29153 7.10347 4.20999 7.11899C4.12844 7.1345 4.00102 7.13967 3.82773 7.13967H2.81348V7.1345ZM3.64934 6.78803H3.77676C3.92967 6.78803 4.05199 6.76735 4.14373 6.72598C4.23547 6.68461 4.30683 6.61221 4.35779 6.51396C4.41386 6.41053 4.43934 6.28126 4.43934 6.11578C4.43934 5.96064 4.41386 5.82619 4.35779 5.7176C4.30173 5.609 4.23037 5.53143 4.13354 5.49007C4.04179 5.4487 3.91947 5.42801 3.77676 5.42801H3.64934V6.78803Z" fill="white"/>
<path d="M5.21924 7.1345V6.78803H5.50975V5.42801H5.21924V5.08154H7.03368V5.7176H6.64633V5.43318H6.03982V5.90893H6.47814V6.2554H6.03982V6.78803H6.35072V7.1345H5.21924Z" fill="white"/>
<path d="M6.28425 8.77385H1.1875V7.81201H7.08444V7.96715C7.07934 8.41187 6.72257 8.77385 6.28425 8.77385Z" fill="#24C0DD0D"/>
</svg>
