<svg width="60" height="60" viewBox="0 0 60 60" fill="none" xmlns="http://www.w3.org/2000/svg">
<rect width="60" height="60" rx="30" fill="#0790FE"/>
<path d="M38.2842 34.9805C38.0831 34.7557 37.8342 34.5753 37.5545 34.4518C37.2748 34.3282 36.9708 34.2642 36.6633 34.2642C36.3557 34.2642 36.0518 34.3282 35.7721 34.4518C35.4924 34.5753 35.2435 34.7557 35.0424 34.9805C34.285 35.7033 33.5277 36.435 32.7796 37.1757C32.7092 37.2682 32.6047 37.3309 32.4877 37.3508C32.3708 37.3708 32.2504 37.3464 32.1515 37.2828C31.662 37.024 31.1355 36.8188 30.6645 36.5332C28.503 35.1797 26.587 33.4913 24.9936 31.5359C24.1617 30.5882 23.4743 29.5304 22.9524 28.3947C22.8957 28.3005 22.8766 28.1895 22.8987 28.0827C22.9208 27.9758 22.9826 27.8805 23.0725 27.8147C23.8299 27.1008 24.5687 26.3779 25.3168 25.6462C25.561 25.4502 25.7575 25.2047 25.8924 24.9271C26.0272 24.6495 26.0971 24.3466 26.0971 24.0399C26.0971 23.7332 26.0272 23.4303 25.8924 23.1527C25.7575 22.8751 25.561 22.6296 25.3168 22.4336L23.5343 20.7113C22.9247 20.1224 22.3152 19.5245 21.6871 18.9266C21.4843 18.7044 21.2349 18.5264 20.9554 18.4045C20.6759 18.2827 20.3728 18.2196 20.0662 18.2196C19.7596 18.2196 19.4564 18.2827 19.177 18.4045C18.8975 18.5264 18.6481 18.7044 18.4453 18.9266C17.6787 19.6494 16.949 20.399 16.164 21.1129C15.4728 21.7427 15.0593 22.6056 15.0095 23.5223C14.9437 25.0257 15.2212 26.5247 15.8222 27.9128C16.9742 30.7985 18.6334 33.4703 20.7266 35.8104C23.4816 39.0068 26.9105 41.5989 30.7846 43.4134C32.5061 44.2844 34.39 44.8153 36.3262 44.9751C36.9748 45.0455 37.6314 44.9657 38.2417 44.7423C38.852 44.5188 39.3985 44.1581 39.8359 43.6901C40.4824 42.9851 41.212 42.3426 41.9047 41.6733C42.1443 41.4764 42.3367 41.2316 42.4686 40.9558C42.6005 40.68 42.6689 40.3798 42.6689 40.0759C42.6689 39.7721 42.6005 39.4719 42.4686 39.1961C42.3367 38.9203 42.1443 38.6755 41.9047 38.4786C40.7102 37.3126 39.5034 36.1465 38.2842 34.9805Z" fill="white"/>
<path d="M44.9086 27.0945C42.5038 21.6669 38.0144 17.3518 32.3846 15.0564C32.1578 14.9746 31.9069 14.982 31.6858 15.0772C31.4648 15.1723 31.2912 15.3475 31.2024 15.565C31.154 15.6738 31.1285 15.7909 31.1275 15.9094C31.1264 16.0278 31.1498 16.1453 31.1962 16.255C31.2426 16.3646 31.3112 16.4642 31.3979 16.548C31.4846 16.6318 31.5876 16.6981 31.7011 16.7429C36.8907 18.8613 41.0287 22.8403 43.2461 27.8441C43.3453 28.0563 43.5263 28.2227 43.7506 28.3077C43.9749 28.3927 44.2248 28.3897 44.4468 28.2993C44.5605 28.2512 44.663 28.1814 44.7482 28.0942C44.8333 28.007 44.8995 27.9041 44.9426 27.7917C44.9857 27.6792 45.0049 27.5595 44.999 27.4398C44.9932 27.32 44.9624 27.2026 44.9086 27.0945Z" fill="white"/>
<path d="M31.2204 21.5896C34.366 22.8698 36.8755 25.2784 38.2213 28.3092C38.2927 28.4587 38.4056 28.5862 38.5475 28.6775C38.6893 28.7689 38.8545 28.8206 39.0248 28.8268C39.1495 28.8259 39.2725 28.7985 39.385 28.7465C39.5974 28.6459 39.7618 28.4705 39.8443 28.2563C39.9267 28.0421 39.9211 27.8055 39.8283 27.5953C38.3029 24.1543 35.4555 21.4192 31.8854 19.9655C31.6655 19.8901 31.4243 19.8978 31.2101 19.9872C30.996 20.0766 30.8247 20.241 30.7309 20.4473C30.644 20.662 30.6465 20.9007 30.7377 21.1136C30.829 21.3265 31.0019 21.4971 31.2204 21.5896Z" fill="white"/>
</svg>
