<svg width="58" height="84" viewBox="0 0 58 84" fill="none" xmlns="http://www.w3.org/2000/svg">
<path d="M55.2908 5.27361C51.2471 14.8495 38.3909 21.6197 38.4419 25.1094C38.4985 28.9722 40.186 36.7908 40.4638 40.8413C41.2054 49.9456 41.2054 59.0966 40.4638 68.201C40.2686 70.9297 46.471 76.8761 40.4638 80.5129C38.2042 81.8809 32.3763 77.7769 21.5931 80.5129C18.2249 81.1926 14.7719 81.3267 11.3624 80.9104C10.0357 80.7201 9.11207 79.4743 9.29956 78.1277C9.41387 77.3069 9.92742 76.5995 10.6661 76.2456C13.669 74.8262 17.6565 73.5653 20.2445 72.3045C24.2223 70.3668 26.6975 68.429 28.0958 65.9152C28.2567 65.6218 28.3566 65.2979 28.3891 64.9637C29.5374 54.0061 24.9115 37.3071 21.5924 29.897C20.6843 28.222 20.2198 26.3366 20.2445 24.425C20.2445 21.689 21.5924 20.3211 22.9403 17.5851C25.9635 11.4486 26.7782 7.76868 28.2353 4.6821C28.7154 3.84051 29.5986 3.31945 30.5568 3.31233C37.1523 2.6873 43.8015 3.00139 50.3112 4.24544" stroke="#1C99FD" stroke-width="5" stroke-linecap="round" stroke-linejoin="round"/>
<path d="M25.7354 28.2878C26.3398 28.0591 26.8792 27.6824 27.3059 27.1915C28.6661 25.5952 28.6086 22.8312 27.2062 20.2168" stroke="#1C99FD" stroke-width="5" stroke-linecap="round" stroke-linejoin="round"/>
<path d="M17.3954 16.4716L13.047 12.1856L16.6486 10.4593L11.1855 5.07349" stroke="#1C99FD" stroke-width="5" stroke-linecap="round" stroke-linejoin="round"/>
<path d="M4.94531 36.276L10.1766 33.168L10.8546 37.1529L17.427 33.2473" stroke="#1C99FD" stroke-width="5" stroke-linecap="round" stroke-linejoin="round"/>
<path d="M15.5504 23.07L9.51041 22.5488L10.5887 26.4421L3 25.7882" stroke="#1C99FD" stroke-width="5" stroke-linecap="round" stroke-linejoin="round"/>
</svg>
